# xmcd
#
# Track frame offsets:
#	150
#	24605
#	55544
#	67369
#	87273
#	107201
#	128157
#	155629
#	178106
#	209546
#	233175
#	266814
#	291692
#	309072
#
# Disc length: 4452
#
# Revision: 1
# Processed by: cddbd v1.5.1PL0 Copyright (c) Steve Scherf et al.
# Submitted via: CDex 1.50beta8
# Normalized: r0:TDELIM( - )
#
DISCID=d511620e
DTITLE=Various Artist - MTV Bluesmasters
DYEAR=1900
DGENRE=Blues
TTITLE0=B.B. King - Darlin` What Hapanned
TTITLE1=Gary Moore - Parisienne Walkways
TTITLE2=John Lee Hooker - Boom Boom
TTITLE3=Grand funk Railroad - It`s a Man`s World
TTITLE4=Ry Cooder - Crossroads
TTITLE5=ZZ Top - Blue Jean blues
TTITLE6=Jimi Hendrix - Catfish Blues
TTITLE7=John Campbell - Wild Streak
TTITLE8=Buddy Guy - Rememberin` Stevie
TTITLE9=Kingdom Come - What Love Can Be
TTITLE10=Led Zeppelin - Since I`ve Been Loving You
TTITLE11=The Rolling Stones - Sister Morphine
TTITLE12=Dire Straits - Fade to Black
TTITLE13=Eric Clapton - Double Trouble
EXTD=
EXTT0=
EXTT1=
EXTT2=
EXTT3=
EXTT4=
EXTT5=
EXTT6=
EXTT7=
EXTT8=
EXTT9=
EXTT10=
EXTT11=
EXTT12=
EXTT13=
PLAYORDER=
